<svg id="Calque_1" data-name="Calque 1" xmlns="http://www.w3.org/2000/svg" xmlns:xlink="http://www.w3.org/1999/xlink" viewBox="0 0 76.7 30.24"><defs><style>.cls-1{fill:none;}.cls-2{clip-path:url(#clip-path);}.cls-3{fill:#b6b1f4;}.cls-4{opacity:0.7;}.cls-5{clip-path:url(#clip-path-3);}.cls-6{fill:#fff;}.cls-10,.cls-11,.cls-7{fill:#393939;}.cls-8{clip-path:url(#clip-path-4);}.cls-10,.cls-11,.cls-9{isolation:isolate;}.cls-10,.cls-11{font-size:10.21px;font-family:FuturaPT-Heavy, Futura PT;font-weight:800;}.cls-11{letter-spacing:-0.02em;}</style><clipPath id="clip-path" transform="translate(-38.39 -0.45)"><rect class="cls-1" x="70.84" y="0.45" width="44.26" height="30.24"/></clipPath><clipPath id="clip-path-3" transform="translate(-38.39 -0.45)"><rect class="cls-1" x="70.84" y="2.73" width="42.88" height="27.2"/></clipPath><clipPath id="clip-path-4" transform="translate(-38.39 -0.45)"><rect class="cls-1" x="38.39" y="9.77" width="57.91" height="11.61"/></clipPath></defs><g class="cls-2"><g id="Groupe_88" data-name="Groupe 88"><g id="Groupe_87" data-name="Groupe 87"><g class="cls-2"><g id="Groupe_86" data-name="Groupe 86"><path id="Tracé_26" data-name="Tracé 26" class="cls-3" d="M111.86,11.39C106.18,5.45,94.08,9.85,91,7c-1.58-1.45-3.35-3.14-5.63-3.8a13.49,13.49,0,0,0-6.59-.14c-7.21,1.63-9.41,7.66-7,13.51,3.18,7.79,13,14.7,23.06,13.13a29.29,29.29,0,0,0,13.6-6.12l.08-.07c3.57-2.91,7.7-7.6,3.36-12.13" transform="translate(-38.39 -0.45)"/><g id="Groupe_85" data-name="Groupe 85" class="cls-4"><g id="Groupe_84" data-name="Groupe 84"><g class="cls-5"><g id="Groupe_83" data-name="Groupe 83"><path id="Tracé_27" data-name="Tracé 27" class="cls-6" d="M111.86,11.39C106.18,5.45,94.08,9.85,91,7c-1.58-1.45-3.35-3.14-5.63-3.8a13.49,13.49,0,0,0-6.59-.14c-7.21,1.63-9.41,7.66-7,13.51,3.18,7.79,13,14.7,23.06,13.13a29.29,29.29,0,0,0,13.6-6.12l.08-.07c3.57-2.91,7.7-7.6,3.36-12.13" transform="translate(-38.39 -0.45)"/></g></g></g></g><path id="Tracé_28" data-name="Tracé 28" class="cls-7" d="M95.32,30.69h-3L103.91.45h3Z" transform="translate(-38.39 -0.45)"/><path id="Tracé_29" data-name="Tracé 29" class="cls-7" d="M111.4,11.35,98.76,6.4V2.77L115.09,10v2.79L98.76,20V16.36Z" transform="translate(-38.39 -0.45)"/><path id="Tracé_30" data-name="Tracé 30" class="cls-7" d="M109.72,20,97.07,15V11.4l16.34,7.23v2.79L97.07,28.67V25Z" transform="translate(-38.39 -0.45)"/></g></g></g></g></g><g id="Groupe_92" data-name="Groupe 92"><g class="cls-8"><g id="Groupe_91" data-name="Groupe 91"><g id="BOOTCODE" class="cls-9"><text class="cls-10" transform="translate(0 17.91) scale(1.04 1)">BO</text><text class="cls-11" transform="translate(14.94 17.91) scale(1.04 1)">O</text><text class="cls-11" transform="translate(23.34 17.91) scale(1.04 1)">T</text><text class="cls-10" transform="translate(28.04 17.91) scale(1.04 1)">CODE</text></g></g></g></g></svg>